<svg version="1" xmlns="http://www.w3.org/2000/svg" width="106.675" height="141.931" viewBox="0 0 106.675 141.931" overflow="scroll"><g fill-rule="evenodd" clip-rule="evenodd" fill="#FFF"><path d="M54.262.018c29.893-1.43 74.1 82.022 40.162 121.66-10.736 12.537-24.217 20.253-40.162 20.253-15.174 0-29.059-6.987-39.618-18.468C-21.268 84.417 15.43 1.876 54.262.018zm.053 1.468l-3.433.385-3.44.817-3.42 1.231-3.39 1.626L37.29 7.55l-3.281 2.36-3.205 2.699-3.113 3.01-3.008 3.305-2.885 3.573-2.751 3.82-2.603 4.043-2.439 4.244-2.264 4.42L9.67 43.6l-1.871 4.704-1.654 4.813-1.426 4.896-1.183 4.958-.93 4.994-.66 5.009-.383 5-.09 4.966.212 4.912.53 4.832.855 4.732 1.194 4.608 1.544 4.463 1.906 4.296 2.28 4.11 2.665 3.9 3.083 3.699.959 1.019.995 1.012 1.015.986 1.03.959 1.05.931 1.065.903 1.082.874 1.098.845 1.114.814 1.129.786 1.144.754 1.158.725 1.173.692 1.186.662 1.2.629 1.212.597 1.227.563 1.238.53 1.25.496 1.262.463 1.274.428 1.284.393 1.295.358 1.305.322 1.315.285 1.325.25 1.335.21 1.343.175 1.353.136 1.36.098 1.37.06 1.374.02 1.444-.023 1.429-.064 1.414-.11 1.4-.149 1.384-.192 1.37-.233 1.356-.274 1.34-.313 1.329-.355 1.313-.392 1.299-.432 1.283-.47 1.272-.508 1.256-.545 1.242-.582 1.227-.618 1.215-.655 1.2-.69 1.185-.725 1.172-.76 1.157-.794 1.142-.828 1.128-.861 1.114-.893 1.1-.928 1.084-.958 1.07-.99 1.055-1.02 1.04-1.05 1.026-1.081 1.01-1.11.974-1.116 2.883-3.745 2.437-3.948 2.028-4.156 1.637-4.344 1.26-4.513.898-4.657.552-4.78.22-4.879-.096-4.955-.397-5.007-.682-5.033-.95-5.036-1.202-5.016-1.438-4.97-1.656-4.898-1.86-4.806-2.043-4.687-2.211-4.545-2.362-4.377-2.495-4.186-2.61-3.971-2.709-3.731-2.787-3.468-2.849-3.18-2.89-2.868-2.911-2.533-2.913-2.173-2.891-1.793-2.848-1.391-2.781-.973-2.695-.541-2.615-.102z" fill="currentColor" fill-opacity="0.35"/><path d="M50.204 62.23s5.463 3.344 6.236 9.788c.684 5.7-2.003 11.057-7.82 12.657-1.51.416-3.168.388-4.825-.532-5.581-3.1-3.863-9.094.953-13.684 5.32-5.07 5.487-8.245 5.456-8.23zM53.986 44.97c1.647.1 2.99.74 2.99 1.42 0 .681-1.343 1.155-2.99 1.053-1.646-.101-2.989-.739-2.989-1.42s1.343-1.155 2.99-1.054zM46.292 42.49c-1.37-.33-7.93-2.19-7.107-7.3.92-5.7 6.803-5.516 9.194-4.228 2.391 1.287 1.655-2.391 2.023-3.127.368-.735 1.103-3.861 4.78-.55 3.678 3.309 4.414 1.102 4.598-.921.184-2.022 2.574-2.942 6.068.552 1.038 1.037 1.929 1.232 2.67.992 2.738-.884 2.068-6.09 6.295-3.957 11.543 5.827 3.846 16.068-.448 16.601a2.919 2.919 0 0 1-.594.011c-4.83-.685-8.761-2.535-12.117-2.495-3.41.077-7.926.422-11.698 2.343a45.438 45.438 0 0 0-3.664 2.08zM11.842 105.278l-.19-.348-1.742-3.966-1.41-4.122-1.091-4.255-.782-4.37-.483-4.461-.195-4.536.083-4.587.349-4.616.605-4.624.848-4.612 1.081-4.578 1.302-4.522 1.512-4.444 1.71-4.344 1.893-4.225 2.068-4.083 2.229-3.917 2.377-3.734 1.85-2.596-.347.547-2.17 3.813-2.017 3.985-1.853 4.13-1.673 4.252-1.479 4.349-1.273 4.42-1.054 4.468-.827 4.49-.585 4.485-.338 4.46-.08 4.408.186 4.332.458 4.233.736 4.114 1.02 3.973 1.305 3.816 1.6 3.644 1.9 3.463.26.384z" fill="currentColor" fill-opacity="0.35"/><path d="M42.563 83.32c-1.095.754-7.497 5.298-6.714 7.84.854 2.779 3.374 3.121 5.726-.512 1.468-2.27 2.52-4.639 3.102-6.098a6.472 6.472 0 0 1-.882-.407 8.691 8.691 0 0 1-1.232-.824z" fill="currentColor" fill-opacity="0.35"/><path d="M17.6 100.015l5.089-4.071s11.705 14.758 31.043 13.74c19.339-1.017 23.919-11.705 26.972-17.303 0 0 4.07 2.036 12.214-1.017l1.06-.425-1.349 3.598-1.682 3.458-2.004 3.262-2.445 3.192-.765.88-.879.97-.891.942-.902.916-.909.883-.855.794.318 12.067.507-.409 1.01-.855.995-.882.982-.913.968-.94.955-.97.94-.995.928-1.023.894-1.028 2.645-3.453 2.237-3.639 1.862-3.831 1.501-4.004 1.157-4.16.824-4.293.507-4.406.201-4.497-.088-4.568-.363-4.615-.626-4.638-.873-4.644-1.102-4.622c-2.216-7.694-4.963-14.831-8.45-22.036l-2.169-4.034C80.782 21.87 70.517 4.933 55.793 4.04c-3.566-.217-9.504.908-15.38 4.522-2.758 1.697-11.904 7.464-19.23 20.446l-1.861 3.675-1.853 4.13-1.673 4.252-1.479 4.349-1.273 4.42-1.054 4.468-.827 4.49-.585 4.485-.338 4.46-.08 4.408.186 4.332.458 4.233.736 4.114 1.02 3.973 1.305 3.816 1.6 3.644 1.9 3.463.204.302.03-.007zM94.372 89.54c-2.852 1.2-8.872 3.335-12.65 1.824l-2.036-.51s-7.124 25.446-40.712 15.268c0 0-20.356-6.615-22.901-33.588 0 0-3.562-24.427 8.651-44.783C36.938 7.395 50.68 5.359 55.768 5.868c3.088.309 10.534 1.664 18.385 10.28C88.043 31.39 95.029 53.669 96.498 74.64l-.191 4.272-.477 4.145-.767 3.998-.691 2.484z" fill="currentColor" fill-opacity="0.35"/><path d="M33.736 55.694s12.46-.692 16.612 6.691c0 0 3-3.922-1.384-10.152-4.384-6.23.923-11.536 7.153-12.46 6.23-.922 21.92-.692 25.15 17.536 3.23 18.228-1.453 31.817-1.453 31.817s-1.898 4.067 2.983 2.983c4.88-1.085 4.857-20.985 4.235-25.488-1.214-8.782-4.231-20.756-13.174-26.007a18.672 18.672 0 0 0-5.24-2.081C64.12 37.48 56.987 36.83 49.957 40.41c-12.358 6.294-15.323 14.41-16.22 15.283zM25.901 105.344l-.89-1.187c1.009-.718 2.07-.607 3.187.331.66.556 1.037 1.12 1.131 1.692.092.575-.026 1.056-.355 1.449a1.596 1.596 0 0 1-.842.534c-.335.087-.725.084-1.17-.01.265.442.394.859.384 1.25-.01.392-.158.76-.447 1.104-.414.492-.932.74-1.551.741-.617 0-1.288-.304-2.01-.91-.59-.494-.972-.982-1.148-1.465-.177-.482-.124-1.064.156-1.746l1.328.533c-.176.428-.217.767-.122 1.017.093.248.271.483.532.702.358.301.685.444.98.427.294-.017.523-.126.692-.327a.874.874 0 0 0 .19-.791c-.068-.296-.288-.602-.662-.916l-.258-.217.712-.849.131.111c.35.293.681.438.996.436.315 0 .582-.13.798-.39a.89.89 0 0 0 .212-.707c-.032-.266-.186-.517-.466-.752-.476-.4-.98-.42-1.508-.06zm6.538 10.945l1.266-7.822-1.345-.809-6.246 4.826 1.35.812 1.38-1.12 2.52 1.516-.31 1.763 1.385.834zm-.844-3.903l-1.72-1.035 2.258-1.828-.538 2.863zm4.48-2.64l4.585 1.95-.482 1.136-3.218-1.369-2.394 5.634-1.368-.582 2.877-6.768zm2.976 5.41c-.303 1.13-.23 2.102.22 2.914.45.81 1.204 1.359 2.261 1.642 1.043.28 1.963.18 2.76-.3.798-.48 1.35-1.293 1.659-2.441.31-1.156.238-2.144-.216-2.96-.454-.82-1.204-1.368-2.25-1.649-.58-.155-1.114-.2-1.608-.13-.37.05-.733.181-1.09.392-.356.213-.664.48-.922.797-.35.433-.62 1.012-.814 1.735zm1.49.349c-.215.804-.192 1.464.066 1.98.261.514.677.847 1.249 1 .571.154 1.096.075 1.574-.24.476-.313.825-.882 1.046-1.705.218-.813.203-1.468-.045-1.966-.25-.496-.67-.824-1.26-.982-.594-.16-1.125-.084-1.595.224-.47.309-.815.87-1.035 1.689zm5.633 5.11l.773-7.315 2.368.25c.898.096 1.48.195 1.744.296.408.154.735.43.98.827.243.398.335.888.273 1.469-.048.45-.17.82-.365 1.107a2.018 2.018 0 0 1-.698.656 2.14 2.14 0 0 1-.8.265c-.36.033-.875.014-1.545-.056l-.961-.101-.292 2.759-1.477-.157zm2.118-5.92l-.218 2.074.806.086c.583.06.977.064 1.181.009a.979.979 0 0 0 .5-.312.99.99 0 0 0 .227-.55.955.955 0 0 0-.166-.684 1.022 1.022 0 0 0-.559-.386c-.173-.053-.526-.105-1.057-.162l-.714-.075zm9.031 3.592c-.096.544-.279.95-.55 1.214-.271.266-.603.408-.999.43-.533.027-.977-.148-1.332-.525-.356-.376-.556-1.03-.604-1.958-.045-.876.091-1.517.409-1.924.319-.41.751-.628 1.295-.656.393-.02.735.072 1.021.278.29.206.486.497.59.875l1.452-.428c-.198-.58-.471-1.018-.823-1.313-.588-.503-1.333-.73-2.23-.683-1.03.053-1.842.435-2.438 1.144-.595.71-.863 1.675-.799 2.898.06 1.154.422 2.05 1.085 2.684.662.632 1.481.924 2.456.874.788-.04 1.43-.27 1.921-.685.492-.417.828-1.03 1.006-1.844l-1.46-.38zm1.351-4.752l1.453-.308.65 3.062c.317-.101.519-.231.605-.39.085-.158.183-.569.292-1.231.137-.843.337-1.391.6-1.644.261-.255.727-.452 1.397-.594l.21-.05.228 1.073-.207.039c-.297.063-.507.146-.63.249a.85.85 0 0 0-.26.408c-.054.168-.115.503-.182 1.008a3.496 3.496 0 0 1-.155.683c-.069.189-.218.384-.448.587.343.024.65.151.92.385.27.233.585.578.944 1.03l1.4 1.766-1.707.362-1.254-1.678a2.746 2.746 0 0 0-.116-.134 12.257 12.257 0 0 1-.252-.3c-.262-.314-.463-.503-.6-.566-.138-.064-.33-.07-.577-.021l.668 3.151-1.452.308-1.527-7.195zm6.08 2.578c.418 1.093 1.048 1.836 1.89 2.228.842.39 1.773.391 2.795 0 1.007-.386 1.693-1.009 2.056-1.865.362-.858.333-1.84-.093-2.95-.428-1.118-1.067-1.874-1.915-2.268-.85-.396-1.778-.399-2.79-.01-.56.213-1.018.492-1.377.838-.27.258-.486.578-.65.958a3.485 3.485 0 0 0-.279 1.187c-.027.555.094 1.182.363 1.882zm1.41-.594c-.304-.79-.354-1.449-.156-1.974.2-.526.585-.9 1.157-1.119.572-.219 1.105-.201 1.598.054.493.256.89.777 1.192 1.563.306.797.357 1.461.156 1.995-.202.536-.58.908-1.132 1.12-.553.211-1.085.186-1.599-.077-.512-.264-.918-.785-1.217-1.562zm7.542.913l-3.786-6.306 4.675-2.806.64 1.067-3.4 2.042.838 1.398 3.166-1.9.637 1.061-3.166 1.9 1.03 1.717 3.523-2.114.639 1.062-4.796 2.88zM20.001 115.723l1.636 1.658c.358-.423.562-.872.61-1.345.049-.473-.112-.897-.484-1.275-.282-.285-.6-.45-.953-.49a1.802 1.802 0 0 0-1.047.2l-.796-1.29a2.752 2.752 0 0 1 1.853-.376c.651.096 1.268.44 1.851 1.031.758.769 1.091 1.616.996 2.543-.092.927-.558 1.787-1.392 2.58-.568.54-1.156.904-1.762 1.092a3.293 3.293 0 0 1-1.766.077c-.57-.138-1.1-.453-1.588-.948-1.187-1.205-1.342-2.495-.463-3.869l1.392.751c-.334.424-.487.835-.46 1.231.026.394.19.745.487 1.047.31.313.683.474 1.126.484.44.011.939-.185 1.492-.583l-1.635-1.66.903-.858zm5.592 1.223l-4.5 5.879 1.207.892 3.746-4.892 2.345 1.731-3.745 4.892 1.208.892 4.5-5.879-4.761-3.515zm1.6 10.09l4.093-2.213-.372-4.175 1.561.813.201 2.78 2.426-1.412 1.549.806-3.763 2.084.458 4.52-1.612-.84-.254-3.01-2.685 1.48-1.602-.834zm11.72-2.632l2.878.807c.57.16.99.303 1.256.43.267.124.488.29.667.501s.304.458.38.746c.076.287.069.584-.02.889a1.72 1.72 0 0 1-.536.836c-.264.225-.57.363-.92.415.4.247.677.557.824.924.149.37.163.757.044 1.166a2.17 2.17 0 0 1-.501.874c-.24.26-.52.446-.836.554-.316.107-.674.128-1.073.062-.249-.043-.839-.19-1.768-.444l-2.452-.687 2.056-7.073zm1.113 1.585l-.476 1.636.953.267c.567.159.921.25 1.063.27.257.043.477.014.66-.086a.78.78 0 0 0 .374-.494c.064-.22.055-.413-.027-.584-.084-.172-.244-.306-.477-.401-.14-.057-.55-.182-1.235-.373l-.835-.235zm-.818 2.813l-.55 1.89 1.345.377c.525.148.861.228 1.01.237a.95.95 0 0 0 .61-.133c.18-.112.307-.293.38-.544a.94.94 0 0 0-.001-.584.912.912 0 0 0-.36-.452c-.178-.123-.6-.277-1.26-.461l-1.174-.33zm5.74 4.7l.774-7.315 1.506.153-.305 2.88 2.948.3.304-2.879 1.504.154-.774 7.316-1.504-.154.338-3.199-2.947-.3-.338 3.199-1.506-.154zm7.946-6.781l1.414-.075.266 4.89 2.764-5.049 1.505-.08.4 7.345-1.412.074-.262-4.794-2.765 4.954-1.51.079-.4-7.344zm10.269 6.29l-1.407-5.952-2.165.493-.286-1.213 5.798-1.32.286 1.212-2.159.492 1.407 5.951-1.474.337zm2.43-8.212l1.312-.522 1.873 4.538.94-5.657 1.396-.557 2.814 6.817-1.312.522-1.836-4.45-.972 5.567-1.401.558-2.814-6.816zm6.323-2.655l4.087 6.165 1.267-.81-3.4-5.13 2.457-1.571 3.4 5.13 1.268-.811-4.087-6.164-4.992 3.191z" fill="currentColor" fill-opacity="0.35"/></g></svg>